<svg width="137" height="68" viewBox="0 0 137 68" fill="none" xmlns="http://www.w3.org/2000/svg">
<g clip-path="url(#clip0_161_1486)">
<path d="M4.1183 51.7609C3.96763 51.7985 3.78752 51.8361 3.57796 51.8736C3.38919 51.9112 3.14327 51.93 2.8402 51.93C1.93099 51.93 1.23133 51.696 0.73776 51.2296C0.24592 50.7445 0 49.9877 0 48.961V31.5348H1.4201V48.9047C1.4201 49.3898 1.51535 49.7912 1.70412 50.109C1.89289 50.4267 2.29121 50.5856 2.89735 50.5856H3.55025C3.71997 50.5856 3.91048 50.5668 4.1183 50.5292V51.7626V51.7609ZM8.16039 51.7609V37.753H9.66535V51.7609H8.16039ZM25.1947 51.7609V42.5994C25.1947 41.366 24.9107 40.423 24.3426 39.7705C23.7746 39.0974 22.8377 38.7626 21.5301 38.7626C20.659 38.7626 19.9213 38.9402 19.3151 39.2956C18.709 39.6321 18.2171 40.0797 17.8379 40.64C17.4776 41.2003 17.2127 41.8443 17.043 42.5738C16.8923 43.2844 16.8161 44.0121 16.8161 44.7587V51.7626H15.396V37.7547H16.6464L16.8161 40.3035C17.0049 39.8559 17.2698 39.4544 17.611 39.0991C17.9522 38.7438 18.3297 38.4448 18.7471 38.2023C19.1818 37.9409 19.6459 37.7444 20.1395 37.6146C20.6313 37.4643 21.1249 37.3908 21.6167 37.3908C23.2637 37.3908 24.5037 37.8487 25.3367 38.7643C26.1888 39.6799 26.6148 40.9304 26.6148 42.5191V51.7643H25.1947V51.7609ZM43.0308 44.1693C43.0308 44.3367 43.0222 44.4956 43.0031 44.6459V45.0935H32.1532C32.1722 45.9152 32.3039 46.6907 32.5515 47.4184C32.8165 48.1274 33.1767 48.7543 33.6304 49.2958C34.0288 49.7622 34.5015 50.1278 35.0505 50.3891C35.6186 50.6505 36.2905 50.7821 37.0664 50.7821C38.3341 50.7821 39.3663 50.3721 40.1629 49.5487C40.4279 49.2873 40.6461 48.9969 40.8158 48.6809C41.0046 48.3631 41.1466 47.9907 41.2418 47.5602H42.7191C42.6238 48.1581 42.4351 48.7082 42.151 49.2139C41.867 49.699 41.5259 50.1295 41.1293 50.5019C40.6184 51.0058 40.0122 51.4073 39.3108 51.7062C38.6285 51.9864 37.8821 52.1265 37.0664 52.1265C36.0446 52.1265 35.1631 51.9403 34.4253 51.5662C33.6876 51.192 33.0624 50.7171 32.5515 50.138C31.9644 49.465 31.5107 48.6809 31.1886 47.784C30.8855 46.8684 30.7348 45.8793 30.7348 44.815C30.7348 43.9182 30.8301 43.0504 31.0188 42.2099C31.2076 41.3694 31.5782 40.5751 32.1272 39.8285C33.3395 38.204 34.9484 37.3908 36.9556 37.3908C37.9219 37.3908 38.774 37.577 39.5117 37.9511C40.2685 38.3253 40.9041 38.8292 41.415 39.4647C41.945 40.0814 42.3433 40.8006 42.6083 41.6222C42.8923 42.4439 43.0343 43.2947 43.0343 44.171L43.0308 44.1693ZM41.583 43.8054C41.564 43.1324 41.4497 42.4986 41.2418 41.9007C41.034 41.284 40.7309 40.7425 40.3326 40.2761C39.9343 39.791 39.4529 39.4083 38.8848 39.1282C38.3168 38.848 37.6725 38.7079 36.9538 38.7079C36.2351 38.7079 35.5528 38.848 34.9657 39.1282C34.3786 39.3895 33.8764 39.7534 33.4607 40.2215C33.0624 40.6878 32.7507 41.2293 32.5238 41.846C32.2969 42.4627 32.1826 43.1153 32.1826 43.8071H41.583V43.8054ZM57.7462 47.3347C57.6509 48.0078 57.4431 48.6416 57.121 49.2395C56.8179 49.8186 56.4196 50.3225 55.9278 50.753C55.455 51.1818 54.8956 51.5183 54.2514 51.7609C53.6262 52.0035 52.9456 52.1248 52.2061 52.1248C51.3159 52.1248 50.521 51.9744 49.8196 51.6772C49.1182 51.3595 48.5225 50.958 48.0306 50.4729C47.2929 49.7451 46.7716 48.9132 46.4685 47.9788C46.1845 47.0255 46.0425 45.9527 46.0425 44.7569C46.0425 43.5611 46.1845 42.4969 46.4685 41.5625C46.7716 40.6092 47.2929 39.7688 48.0306 39.041C48.5225 38.5559 49.1199 38.163 49.8196 37.864C50.521 37.5463 51.3159 37.3874 52.2061 37.3874C52.9438 37.3874 53.6262 37.5002 54.2514 37.7239C54.8956 37.9477 55.4532 38.2757 55.9278 38.7045C56.4006 39.1145 56.7885 39.6099 57.0916 40.189C57.3946 40.7681 57.5938 41.4121 57.6873 42.1228H56.2101C56.0577 41.1525 55.623 40.3479 54.9043 39.7141C54.1838 39.0786 53.285 38.7609 52.2061 38.7609C51.5237 38.7609 50.9193 38.8736 50.3876 39.0974C49.8768 39.3024 49.4317 39.5928 49.0524 39.9652C48.4082 40.6195 47.9821 41.3575 47.7743 42.1791C47.5855 42.982 47.4903 43.8413 47.4903 44.7569C47.4903 45.6726 47.5855 46.5404 47.7743 47.3621C47.9821 48.1838 48.4082 48.9217 49.0524 49.576C49.8092 50.3601 50.8604 50.753 52.2043 50.753C53.3023 50.753 54.2011 50.4267 54.9025 49.7725C55.6212 49.0994 56.0663 48.288 56.2378 47.3347H57.7427H57.7462ZM69.1278 39.0974C68.9009 39.041 68.6637 39.0035 68.4177 38.9847C68.1909 38.9659 67.964 38.9573 67.7354 38.9573C66.8452 38.9573 66.1075 39.135 65.5204 39.4903C64.9523 39.8456 64.4986 40.312 64.1574 40.8911C63.8163 41.4702 63.5703 42.1245 63.4197 42.8522C63.2863 43.5799 63.2205 44.3094 63.2205 45.0371V51.7609H61.8004V37.753H63.0508L63.2205 40.5819C63.5426 39.6116 64.1193 38.8736 64.9523 38.368C65.8044 37.864 66.7327 37.6112 67.7354 37.6112C67.9623 37.6112 68.1891 37.6215 68.4177 37.6385C68.6637 37.6385 68.9009 37.6573 69.1278 37.6949V39.0957V39.0974ZM84.0977 51.7609C83.928 51.7985 83.8137 51.8173 83.7566 51.8173C83.6994 51.8361 83.5869 51.8446 83.4154 51.8446C82.979 51.8446 82.6101 51.7694 82.307 51.6208C82.023 51.4705 81.7961 51.2757 81.6247 51.0332C81.455 50.7718 81.3303 50.4814 81.2558 50.1654C81.1987 49.8288 81.1709 49.4735 81.1709 49.1011C80.9822 49.605 80.7068 50.0441 80.3466 50.4182C80.0054 50.7923 79.6088 51.11 79.1534 51.3714C78.6996 51.614 78.206 51.8002 77.6761 51.9317C77.1462 52.0616 76.6058 52.1282 76.0568 52.1282C75.3745 52.1282 74.732 52.0257 74.1259 51.8207C73.5388 51.6345 73.0175 51.3543 72.5637 50.9802C72.1273 50.6061 71.7879 50.1585 71.542 49.6358C71.296 49.0943 71.1731 48.4878 71.1731 47.8148C71.1731 46.5626 71.6095 45.582 72.4789 44.8731C73.369 44.1454 74.5242 43.7337 75.9443 43.6397L81.1709 43.2759V41.9024C81.1709 40.7442 80.8107 39.9225 80.092 39.4374C79.3924 38.9522 78.5022 38.7096 77.4215 38.7096C76.2854 38.7096 75.3381 38.9625 74.5813 39.4664C73.8245 39.9703 73.4071 40.7459 73.3309 41.7914H71.9108C71.968 41.0824 72.1377 40.4555 72.4217 39.914C72.7248 39.3724 73.1127 38.9146 73.5855 38.5405C74.0774 38.1664 74.6454 37.8862 75.2896 37.7C75.9339 37.495 76.6439 37.3925 77.4198 37.3925C77.8926 37.3925 78.3758 37.4387 78.8676 37.5326C79.3594 37.6078 79.8236 37.7479 80.26 37.9529C80.6947 38.1579 81.0844 38.4295 81.4238 38.766C81.765 39.0837 82.0299 39.4852 82.2187 39.9703C82.3884 40.3991 82.4923 40.8381 82.5304 41.2874C82.5685 41.735 82.5876 42.1928 82.5876 42.6609V49.0481C82.5876 49.5333 82.6447 49.9074 82.7573 50.1688C82.8889 50.4301 83.2024 50.5617 83.6942 50.5617C83.8639 50.5617 83.9973 50.5531 84.0925 50.5344V51.7677L84.0977 51.7609ZM81.1727 44.5605L76.088 44.868C75.0281 44.9431 74.1847 45.2421 73.5595 45.7648C72.9344 46.2688 72.6226 46.9504 72.6226 47.8096C72.6226 48.8175 72.9534 49.5743 73.6167 50.0782C74.299 50.5822 75.1511 50.835 76.1729 50.835C77.063 50.835 77.8199 50.6761 78.445 50.3584C79.0893 50.0219 79.6088 49.5931 80.0072 49.0704C80.4055 48.5476 80.6982 47.9583 80.8869 47.3057C81.0757 46.6326 81.1709 45.9613 81.1709 45.2882V44.5605H81.1727ZM95.3616 32.7938C95.0776 32.7563 94.7658 32.7187 94.4246 32.6811C94.1025 32.6435 93.7337 32.6247 93.3163 32.6247C91.5169 32.6247 90.6181 33.5301 90.6181 35.3426V37.7513H95.0776V39.0393H90.6181V51.7592H89.198V39.0393H86.3578V37.7513H89.198V35.2862C89.198 34.7635 89.2829 34.2681 89.4543 33.8017C89.624 33.3166 89.8717 32.8963 90.1921 32.541C90.5332 32.1669 90.9489 31.8782 91.4424 31.6732C91.9533 31.4682 92.5404 31.3657 93.2037 31.3657C93.6211 31.3657 93.9986 31.3845 94.3398 31.4221C94.681 31.4409 95.0221 31.4785 95.3616 31.5348V32.7956V32.7938ZM104.949 51.6208C104.551 51.7148 104.154 51.7882 103.756 51.8446C103.376 51.9198 102.989 51.9574 102.592 51.9574C101.267 51.9574 100.32 51.5832 99.7518 50.8367C99.2028 50.0714 98.9274 49.0806 98.9274 47.8677V39.0427H96.0872V37.7547H98.9274V33.8889L100.348 33.5523V37.7547H104.75V39.0427H100.348V47.8114C100.348 48.2213 100.375 48.6057 100.432 48.9593C100.509 49.2958 100.632 49.5948 100.801 49.8562C100.99 50.0987 101.236 50.2952 101.539 50.4438C101.842 50.5754 102.23 50.6403 102.703 50.6403C103.082 50.6403 103.451 50.6215 103.811 50.5839C104.19 50.5275 104.568 50.4626 104.947 50.3874V51.6208H104.949ZM108.972 50.5275V50.4711C108.972 49.7895 109.531 49.2378 110.222 49.2378C110.913 49.2378 111.473 49.7895 111.473 50.4711V50.5275C111.473 51.2091 110.913 51.7609 110.222 51.7609C109.531 51.7609 108.972 51.2091 108.972 50.5275ZM128.393 51.7609C128.223 51.7985 128.109 51.8173 128.052 51.8173C127.994 51.8361 127.882 51.8446 127.71 51.8446C127.276 51.8446 126.905 51.7694 126.602 51.6208C126.318 51.4705 126.091 51.2757 125.92 51.0332C125.75 50.7718 125.625 50.4814 125.551 50.1654C125.494 49.8288 125.466 49.4735 125.466 49.1011C125.277 49.605 125.002 50.0441 124.642 50.4182C124.3 50.7923 123.904 51.11 123.448 51.3714C122.995 51.614 122.501 51.8002 121.971 51.9317C121.441 52.0616 120.901 52.1282 120.352 52.1282C119.67 52.1282 119.027 52.0257 118.421 51.8207C117.834 51.6345 117.313 51.3543 116.859 50.9802C116.422 50.6061 116.083 50.1585 115.837 49.6358C115.591 49.0943 115.468 48.4878 115.468 47.8148C115.468 46.5626 115.903 45.582 116.774 44.8731C117.664 44.1454 118.819 43.7337 120.239 43.6397L125.466 43.2759V41.9024C125.466 40.7442 125.106 39.9225 124.387 39.4374C123.686 38.9522 122.797 38.7096 121.717 38.7096C120.581 38.7096 119.633 38.9625 118.876 39.4664C118.12 39.9703 117.702 40.7459 117.626 41.7914H116.206C116.263 41.0824 116.433 40.4555 116.717 39.914C117.02 39.3724 117.408 38.9146 117.881 38.5405C118.372 38.1664 118.94 37.8862 119.585 37.7C120.229 37.495 120.939 37.3925 121.715 37.3925C122.188 37.3925 122.671 37.4387 123.163 37.5326C123.655 37.6078 124.119 37.7479 124.555 37.9529C124.99 38.1579 125.379 38.4295 125.719 38.766C126.06 39.0837 126.325 39.4852 126.514 39.9703C126.683 40.3991 126.789 40.8381 126.825 41.2874C126.864 41.735 126.883 42.1928 126.883 42.6609V49.0481C126.883 49.5333 126.94 49.9074 127.052 50.1688C127.186 50.4301 127.497 50.5617 127.989 50.5617C128.159 50.5617 128.292 50.5531 128.388 50.5344V51.7677L128.393 51.7609ZM125.468 44.5605L120.383 44.868C119.323 44.9431 118.48 45.2421 117.855 45.7648C117.229 46.2688 116.918 46.9504 116.918 47.8096C116.918 48.8175 117.248 49.5743 117.912 50.0782C118.594 50.5822 119.446 50.835 120.468 50.835C121.358 50.835 122.115 50.6761 122.74 50.3584C123.384 50.0219 123.904 49.5931 124.302 49.0704C124.701 48.5476 124.993 47.9583 125.182 47.3057C125.371 46.6326 125.466 45.9613 125.466 45.2882V44.5605H125.468ZM132.696 51.7609V37.753H134.201V51.7609H132.696Z" fill="white"/>
<path d="M8.67998 25.1117L8.00977 24.22C8.47563 23.7741 20.0598 13.5483 49.0472 13.5483C57.1972 13.5483 65.1429 14.5989 72.8253 15.6188C93.344 18.3264 112.728 20.9076 132.752 3.4165L133.393 4.30823C113.019 22.1171 93.4306 19.5051 72.6798 16.7326C65.0251 15.7127 57.1089 14.6621 49.0178 14.6621C20.4374 14.6946 8.79429 25.016 8.67825 25.1117H8.67998Z" fill="#09C4B6"/>
<path d="M6.70999 26.8905C6.10573 26.2438 5.78882 25.4443 5.78882 24.4921C5.78882 23.54 6.10573 22.7028 6.70999 22.0937C7.31426 21.4847 8.13855 21.1416 9.12376 21.1416C10.109 21.1416 10.9661 21.4453 11.5687 22.056C12.173 22.665 12.4899 23.4267 12.4899 24.3789C12.4899 25.4065 12.173 26.206 11.5687 26.8528C10.9645 27.4996 10.1402 27.8427 9.12376 27.8427C8.10735 27.8427 7.34545 27.5373 6.70999 26.8905V26.8905Z" fill="white"/>
<path d="M131.168 5.74895C130.563 5.13991 130.247 4.30268 130.247 3.35054C130.247 2.3984 130.563 1.56118 131.168 0.952139C131.77 0.343098 132.596 0 133.582 0C134.567 0 135.424 0.305341 136.026 0.914382C136.631 1.52342 136.948 2.28513 136.948 3.23727C136.948 4.18941 136.631 5.06439 136.026 5.71119C135.424 6.35799 134.598 6.70109 133.582 6.70109C132.565 6.70109 131.77 6.35799 131.168 5.74895V5.74895Z" fill="white"/>
</g>
<path d="M72.7524 65.3562V62.5536C72.7524 61.5659 72.0143 61.1776 71.1287 61.1776C70.4428 61.1776 69.9045 61.3971 69.453 61.8529L69.7569 62.2919C70.1302 61.9036 70.5383 61.7263 71.0419 61.7263C71.6497 61.7263 72.1012 62.0386 72.1012 62.5873V63.3218C71.7626 62.9419 71.285 62.7646 70.712 62.7646C70 62.7646 69.2446 63.1952 69.2446 64.1069C69.2446 64.9933 70 65.4575 70.712 65.4575C71.2763 65.4575 71.7539 65.2634 72.1012 64.892V65.3562H72.7524ZM70.9464 65.0017C70.3386 65.0017 69.9132 64.6303 69.9132 64.1153C69.9132 63.5919 70.3386 63.2205 70.9464 63.2205C71.4066 63.2205 71.8494 63.3893 72.1012 63.727V64.4952C71.8494 64.8329 71.4066 65.0017 70.9464 65.0017Z" fill="white"/>
<path d="M81.0455 65.3562L82.3218 61.2789H81.1757L80.3943 64.0224L79.474 61.2789H78.4928L77.5725 64.0224L76.7911 61.2789H75.645L76.9213 65.3562H78.1021L78.9877 62.5789L79.8734 65.3562H81.0455Z" fill="white"/>
<path d="M83.4119 60.8399C83.7766 60.8399 84.0718 60.5529 84.0718 60.1983C84.0718 59.8438 83.7766 59.5652 83.4119 59.5652C83.056 59.5652 82.7521 59.8438 82.7521 60.1983C82.7521 60.5529 83.056 60.8399 83.4119 60.8399ZM83.9676 65.3562V61.2789H82.8649V65.3562H83.9676Z" fill="white"/>
<path d="M87.4574 65.4575C88.534 65.4575 89.3154 64.6725 89.3154 63.3133C89.3154 61.9542 88.534 61.1776 87.4574 61.1776C86.9451 61.1776 86.4849 61.3971 86.1637 61.7938V61.2789H85.061V66.9095H86.1637V64.8329C86.5023 65.2549 86.9625 65.4575 87.4574 65.4575ZM87.1101 64.5036C86.7541 64.5036 86.346 64.2926 86.1637 64.0393V62.5958C86.346 62.3341 86.7541 62.1315 87.1101 62.1315C87.7439 62.1315 88.1693 62.6127 88.1693 63.3133C88.1693 64.0224 87.7439 64.5036 87.1101 64.5036Z" fill="white"/>
<path d="M91.2256 65.3562V62.6633C91.408 62.4016 91.8942 62.199 92.2589 62.199C92.3804 62.199 92.4846 62.2075 92.5627 62.2243V61.1776C92.0418 61.1776 91.5208 61.473 91.2256 61.836V61.2789H90.123V65.3562H91.2256Z" fill="white"/>
<path d="M95.1966 65.4575C96.5858 65.4575 97.4193 64.4783 97.4193 63.3133C97.4193 62.1568 96.5858 61.1776 95.1966 61.1776C93.8161 61.1776 92.9826 62.1568 92.9826 63.3133C92.9826 64.4783 93.8161 65.4575 95.1966 65.4575ZM95.1966 64.5036C94.5107 64.5036 94.1286 63.9549 94.1286 63.3133C94.1286 62.6802 94.5107 62.1315 95.1966 62.1315C95.8825 62.1315 96.2732 62.6802 96.2732 63.3133C96.2732 63.9549 95.8825 64.5036 95.1966 64.5036Z" fill="white"/>
<path d="M102.429 65.4575C103.193 65.4575 103.645 65.1536 103.966 64.7484L103.532 64.3601C103.254 64.7231 102.898 64.892 102.464 64.892C101.57 64.892 101.014 64.2166 101.014 63.3133C101.014 62.4101 101.57 61.7432 102.464 61.7432C102.898 61.7432 103.254 61.9036 103.532 62.275L103.966 61.8867C103.645 61.4815 103.193 61.1776 102.429 61.1776C101.179 61.1776 100.337 62.1062 100.337 63.3133C100.337 64.529 101.179 65.4575 102.429 65.4575Z" fill="white"/>
<path d="M106.711 65.4575C107.987 65.4575 108.786 64.4952 108.786 63.3133C108.786 62.1315 107.987 61.1776 106.711 61.1776C105.435 61.1776 104.636 62.1315 104.636 63.3133C104.636 64.4952 105.435 65.4575 106.711 65.4575ZM106.711 64.892C105.817 64.892 105.313 64.1491 105.313 63.3133C105.313 62.486 105.817 61.7432 106.711 61.7432C107.605 61.7432 108.1 62.486 108.1 63.3133C108.1 64.1491 107.605 64.892 106.711 64.892Z" fill="white"/>
<path d="M115.561 65.3562V62.4101C115.561 61.5912 115.153 61.1776 114.388 61.1776C113.781 61.1776 113.216 61.5659 112.982 61.9373C112.86 61.5152 112.496 61.1776 111.853 61.1776C111.237 61.1776 110.672 61.6081 110.499 61.8698V61.2789H109.848V65.3562H110.499V62.3763C110.724 62.0471 111.176 61.7432 111.601 61.7432C112.148 61.7432 112.374 62.0724 112.374 62.5873V65.3562H113.025V62.3679C113.242 62.0471 113.703 61.7432 114.137 61.7432C114.675 61.7432 114.909 62.0724 114.909 62.5873V65.3562H115.561Z" fill="white"/>
<path d="M118.926 65.4575C120.029 65.4575 120.793 64.6303 120.793 63.3133C120.793 61.988 120.029 61.1776 118.926 61.1776C118.336 61.1776 117.815 61.473 117.511 61.8867V61.2789H116.86V66.9095H117.511V64.74C117.849 65.1959 118.353 65.4575 118.926 65.4575ZM118.761 64.892C118.249 64.892 117.737 64.588 117.511 64.2335V62.3932C117.737 62.0386 118.249 61.7432 118.761 61.7432C119.603 61.7432 120.107 62.4101 120.107 63.3133C120.107 64.2166 119.603 64.892 118.761 64.892Z" fill="white"/>
<path d="M125.102 65.3562V62.5536C125.102 61.5659 124.364 61.1776 123.478 61.1776C122.792 61.1776 122.254 61.3971 121.802 61.8529L122.106 62.2919C122.48 61.9036 122.888 61.7263 123.391 61.7263C123.999 61.7263 124.45 62.0386 124.45 62.5873V63.3218C124.112 62.9419 123.634 62.7646 123.061 62.7646C122.349 62.7646 121.594 63.1952 121.594 64.1069C121.594 64.9933 122.349 65.4575 123.061 65.4575C123.626 65.4575 124.103 65.2634 124.45 64.892V65.3562H125.102ZM123.296 65.0017C122.688 65.0017 122.262 64.6303 122.262 64.1153C122.262 63.5919 122.688 63.2205 123.296 63.2205C123.756 63.2205 124.199 63.3893 124.45 63.727V64.4952C124.199 64.8329 123.756 65.0017 123.296 65.0017Z" fill="white"/>
<path d="M129.889 65.3562V62.4945C129.889 61.6081 129.429 61.1776 128.552 61.1776C127.926 61.1776 127.353 61.5321 127.058 61.8698V61.2789H126.407V65.3562H127.058V62.3763C127.301 62.0471 127.788 61.7432 128.3 61.7432C128.864 61.7432 129.238 61.9711 129.238 62.6886V65.3562H129.889Z" fill="white"/>
<path d="M130.955 66.9517C131.076 66.9855 131.293 67.0108 131.432 67.0108C131.988 67.0024 132.413 66.7745 132.665 66.1835L134.766 61.2789H134.054L132.665 64.6218L131.267 61.2789H130.564L132.318 65.3985L132.04 66.0147C131.892 66.3524 131.701 66.4452 131.415 66.4452C131.311 66.4452 131.154 66.4199 131.059 66.3777L130.955 66.9517Z" fill="white"/>
<defs>
<clipPath id="clip0_161_1486">
<rect width="137" height="52.2957" fill="white"/>
</clipPath>
</defs>
</svg>
